FILE "game.gog" BINARY
  TRACK 01 MODE1/2352
    INDEX 01 00:00:00
  TRACK 02 AUDIO
    PREGAP 00:02:00
    INDEX 01 13:20:14
  TRACK 03 AUDIO
    INDEX 01 18:32:61
  TRACK 04 AUDIO
    INDEX 01 21:00:63
  TRACK 05 AUDIO
    INDEX 01 29:23:08
  TRACK 06 AUDIO
    INDEX 01 35:30:38
  TRACK 07 AUDIO
    INDEX 01 42:57:08
  TRACK 08 AUDIO
    INDEX 01 51:37:26
  TRACK 09 AUDIO
    INDEX 01 57:15:21
  TRACK 10 AUDIO
    INDEX 01 63:46:16
  TRACK 11 AUDIO
    INDEX 01 67:20:59
